<svg xmlns="http://www.w3.org/2000/svg" width="128" height="154.509" viewBox="0 0 128 154.509"><path d="M-10334.758,1139.749l-45.257-45.254a63.6,63.6,0,0,1-14.059-21.171,64.01,64.01,0,0,1-3.514-11.859,64.483,64.483,0,0,1-1.172-12.223,64.485,64.485,0,0,1,1.172-12.224,64.013,64.013,0,0,1,3.514-11.859,63.6,63.6,0,0,1,14.059-21.171,63.6,63.6,0,0,1,21.172-14.06,64,64,0,0,1,11.859-3.515,64.443,64.443,0,0,1,12.224-1.172,64.458,64.458,0,0,1,12.224,1.172,64,64,0,0,1,11.859,3.515,63.6,63.6,0,0,1,21.173,14.06,63.588,63.588,0,0,1,14.059,21.171,64.035,64.035,0,0,1,3.515,11.859,64.484,64.484,0,0,1,1.172,12.224,64.485,64.485,0,0,1-1.172,12.224,64.031,64.031,0,0,1-3.515,11.859,63.59,63.59,0,0,1-14.059,21.171l-45.254,45.254Zm-3.817-71.662v4.779a1.9,1.9,0,0,0,1.9,1.9h3.794a1.9,1.9,0,0,0,1.9-1.9v-4.789l2.334,2.334a1.882,1.882,0,0,0,1.341.552,1.878,1.878,0,0,0,1.339-.552l1.339-1.34a1.879,1.879,0,0,0,.553-1.337,1.885,1.885,0,0,0-.553-1.342l-6.329-6.366v-9.187l7.444,4.29,2.254,8.393a1.832,1.832,0,0,0,1.767,1.355,1.823,1.823,0,0,0,.474-.063l1.766-.473a1.816,1.816,0,0,0,1.109-.854,1.815,1.815,0,0,0,.183-1.387l-.83-3.084,4.009,2.314a1.81,1.81,0,0,0,.909.246,1.848,1.848,0,0,0,1.592-.922l1.836-3.178a1.788,1.788,0,0,0,.188-1.384,1.785,1.785,0,0,0-.852-1.1l-4.006-2.314,3.081-.828a1.835,1.835,0,0,0,1.293-2.243l-.476-1.765a1.833,1.833,0,0,0-1.769-1.355,1.814,1.814,0,0,0-.472.063l-8.393,2.254-7.575-4.387,7.562-4.374,8.4,2.251a1.821,1.821,0,0,0,.473.063,1.835,1.835,0,0,0,1.769-1.355l.475-1.765a1.834,1.834,0,0,0-1.295-2.24l-3.081-.83,4.008-2.311a1.848,1.848,0,0,0,.674-2.5l-1.836-3.178a1.845,1.845,0,0,0-1.592-.917,1.849,1.849,0,0,0-.909.24l-4.009,2.314.83-3.084a1.815,1.815,0,0,0-.183-1.387,1.816,1.816,0,0,0-1.109-.854l-1.766-.475a1.827,1.827,0,0,0-.47-.062,1.833,1.833,0,0,0-1.771,1.354l-2.254,8.4-7.444,4.29V1028.8l6.366-6.366a1.9,1.9,0,0,0,0-2.679l-1.34-1.34a1.883,1.883,0,0,0-1.341-.552,1.876,1.876,0,0,0-1.338.552l-2.348,2.335v-4.789a1.9,1.9,0,0,0-1.9-1.9h-3.794a1.9,1.9,0,0,0-1.9,1.9v4.789l-2.335-2.335a1.883,1.883,0,0,0-1.341-.552,1.876,1.876,0,0,0-1.338.552l-1.353,1.34a1.867,1.867,0,0,0-.561,1.337,1.873,1.873,0,0,0,.561,1.342l6.366,6.366v9.187l-7.445-4.29-2.253-8.4a1.831,1.831,0,0,0-1.77-1.354,1.825,1.825,0,0,0-.469.062l-1.768.475a1.831,1.831,0,0,0-1.293,2.24l.831,3.084-4.009-2.314a1.809,1.809,0,0,0-.908-.246,1.853,1.853,0,0,0-1.594.922l-1.835,3.165a1.806,1.806,0,0,0-.186,1.38,1.834,1.834,0,0,0,.861,1.122l4.006,2.311-3.081.83a1.828,1.828,0,0,0-1.12.856,1.832,1.832,0,0,0-.186,1.4l.475,1.765a1.835,1.835,0,0,0,1.769,1.355,1.821,1.821,0,0,0,.473-.063l8.393-2.251,7.564,4.374-7.564,4.374-8.393-2.251a1.816,1.816,0,0,0-.473-.063,1.834,1.834,0,0,0-1.769,1.353l-.475,1.768a1.811,1.811,0,0,0,.184,1.387,1.818,1.818,0,0,0,1.108.854l3.082.83-4.006,2.324a1.849,1.849,0,0,0-.677,2.5l1.839,3.175a1.845,1.845,0,0,0,1.592.918,1.841,1.841,0,0,0,.909-.241l4.006-2.311-.83,3.081a1.835,1.835,0,0,0,1.295,2.24l1.766.475a1.825,1.825,0,0,0,.472.063,1.833,1.833,0,0,0,1.769-1.355l2.254-8.393,7.444-4.293v9.189l-6.366,6.366a1.858,1.858,0,0,0-.562,1.337,1.864,1.864,0,0,0,.562,1.342l1.34,1.34a1.879,1.879,0,0,0,1.338.55,1.885,1.885,0,0,0,1.341-.55l2.333-2.335Z" transform="translate(10398.759 -985.24)" fill="#009ddc"/></svg>