<svg xmlns="http://www.w3.org/2000/svg" xml:space="preserve" id="Layer_1" x="0" y="0" style="enable-background:new 0 0 277.1 201.2" version="1.1" viewBox="0 0 277.1 201.2"><style>.st0{fill:#5dc2f0}.st2{fill:#24a4d1}</style><path id="Left" d="M72.5 100.6H9L72.5 37l63.5 63.5H72.5z" class="st0"/><path id="Right" d="M198.6 100.6h-83l76.2-76.2 76.2 76.2h-69.4z" class="st0"/><path id="Middle" d="M128.4 100.6H36.8L128.4 9l91.6 91.6h-91.6z" style="fill:#3aaadc"/><path d="M26 146.4h21v-7.5H26v-9.2h22.8v-7.6H17.2v43.2h32.7v-7.8H26zM66.3 122.1l-15.4 43.2h9.4l3-8.9h15.9l2.8 8.9h9.8l-15.3-43.2H66.3zm7.6 24.3-2.7-2.6-2.7 2.6-2.7 2.6 5.6-17 5.4 17-2.9-2.6zM123.7 143.8a18.3 18.3 0 0 0-7.4-3.1l-7.4-1.8c-2.9-.7-4.7-1.3-5.6-1.8a3.7 3.7 0 0 1-2.1-3.5c0-1.7.7-3 2.1-3.9s3.2-1.4 5.6-1.4c2.1 0 3.8.4 5.2 1.1 2.1 1.1 3.2 2.9 3.4 5.5h8.7c-.2-4.6-1.8-8.1-5.1-10.5s-7.1-3.6-11.6-3.6c-5.4 0-9.6 1.3-12.4 3.8s-4.2 5.8-4.2 9.6c0 4.2 1.5 7.4 4.4 9.3a28 28 0 0 0 9.3 3.3l4.6 1c2.7.6 4.6 1.3 5.9 2 1.2.8 1.9 1.9 1.9 3.3 0 2.4-1.3 4.1-3.8 5-1.3.5-3.1.7-5.2.7-3.6 0-6.1-.9-7.5-2.7-.8-1-1.3-2.5-1.6-4.4h-8.6c0 4.5 1.6 8 4.8 10.6s7.6 3.9 13.3 3.9c5.5 0 9.8-1.3 12.8-3.9s4.5-5.9 4.5-9.8a11 11 0 0 0-4-8.7zM147.3 140.9l-8.9-18.8h-10.7l15 27v16.2h9v-16.2l14.4-27h-10.2z" class="st2"/><path d="M197.8 143.8a18.3 18.3 0 0 0-7.4-3.1l-7.4-1.8c-2.9-.7-4.7-1.3-5.6-1.8a3.7 3.7 0 0 1-2.1-3.5c0-1.7.7-3 2.1-3.9s3.2-1.4 5.6-1.4c2.1 0 3.8.4 5.2 1.1 2.1 1.1 3.2 2.9 3.4 5.5h8.7c-.2-4.6-1.8-8.1-5.1-10.5s-7.1-3.6-11.6-3.6c-5.4 0-9.6 1.3-12.4 3.8s-4.2 5.8-4.2 9.6c0 4.2 1.5 7.4 4.4 9.3a28 28 0 0 0 9.3 3.3l4.6 1c2.7.6 4.6 1.3 5.9 2 1.2.8 1.9 1.9 1.9 3.3 0 2.4-1.3 4.1-3.8 5-1.3.5-3.1.7-5.2.7-3.6 0-6.1-.9-7.5-2.7-.8-1-1.3-2.5-1.6-4.4h-8.6c0 4.5 1.6 8 4.8 10.6s7.6 3.9 13.3 3.9c5.5 0 9.8-1.3 12.8-3.9s4.5-5.9 4.5-9.8c-.2-3.7-1.5-6.6-4-8.7zM242.7 122.1H231l-16.7 17.8v-17.8h-8.8v43.2h8.8v-14.5l4.3-4.4 13.4 18.9h11.6L225 139.9zM244.9 122.1h9v43.2h-9z" class="st0"/></svg>