<?xml version="1.0" encoding="utf-8"?>
<!-- Generator: Adobe Illustrator 26.3.1, SVG Export Plug-In . SVG Version: 6.00 Build 0)  -->
<svg version="1.1" id="Layer_1" xmlns="http://www.w3.org/2000/svg" xmlns:xlink="http://www.w3.org/1999/xlink" x="0px" y="0px"
	 viewBox="0 0 209.2 108.3" style="enable-background:new 0 0 209.2 108.3;" xml:space="preserve">
<style type="text/css">
	.st0{fill:#00BCF2;}
	.st1{fill:#009EDD;}
</style>
<path id="Polygon_4-2" class="st0" d="M152.1,14.9l56.3,56.7H95.8L152.1,14.9z"/>
<path id="Polygon_2-2" class="st0" d="M40.4,32.4l39.3,39.3H1.1L40.4,32.4L40.4,32.4z"/>
<path class="st1" d="M177.1,71.7l-49.2-49.2L93.4,57L60.9,24.5L13.7,71.7h65.1H177.1z"/>
<path class="st1" d="M106,5.6c-6.9-6.9-18.2-6.9-25.2,0c-6.9,6.9-6.9,18.2,0,25.2l12.6,12.6L106,30.8C113,23.8,113,12.5,106,5.6z
	 M100.7,20.4l-0.5,0.9c-0.1,0.2-0.5,0.3-0.7,0.2l-1.1-0.6l0.2,0.9c0.1,0.3-0.1,0.5-0.4,0.6l-0.5,0.1c-0.3,0.1-0.5-0.1-0.6-0.4
	l-0.6-2.3l-2.1-1.2v2.6l1.8,1.8c0.2,0.2,0.2,0.5,0,0.7l-0.4,0.4c-0.2,0.2-0.5,0.2-0.7,0l-0.6-0.6v1.3c0,0.3-0.2,0.5-0.5,0.5h-1.1
	c-0.3,0-0.5-0.2-0.5-0.5v-1.3l-0.6,0.6c-0.2,0.2-0.5,0.2-0.7,0l-0.4-0.4c-0.2-0.2-0.2-0.5,0-0.7l1.8-1.8v-2.6l-2.1,1.2l-0.6,2.3
	c-0.1,0.3-0.4,0.4-0.6,0.4l-0.5-0.1c-0.3-0.1-0.4-0.4-0.4-0.6l0.2-0.9l-1.1,0.6c-0.2,0.1-0.6,0.1-0.7-0.2l-0.5-0.9
	c-0.1-0.2-0.1-0.6,0.2-0.7l1.1-0.6l-0.9-0.2c-0.3-0.1-0.4-0.4-0.4-0.6l0.1-0.5c0.1-0.3,0.4-0.4,0.6-0.4l2.3,0.6l2.1-1.2l-2.1-1.2
	l-2.3,0.6c-0.3,0.1-0.5-0.1-0.6-0.4l-0.1-0.5c-0.1-0.3,0.1-0.6,0.4-0.6l0.9-0.2l-1.1-0.6c-0.2-0.1-0.3-0.5-0.2-0.7l0.5-0.9
	c0.1-0.2,0.5-0.3,0.7-0.2l1.1,0.6l-0.2-0.9c-0.1-0.3,0.1-0.5,0.4-0.6l0.5-0.1c0.3-0.1,0.5,0.1,0.6,0.4l0.6,2.3l2.1,1.2v-2.6
	l-1.8-1.8c-0.2-0.2-0.2-0.5,0-0.7l0.4-0.4c0.2-0.2,0.5-0.2,0.7,0l0.6,0.6V8.8c0-0.3,0.2-0.5,0.5-0.5H94c0.3,0,0.5,0.2,0.5,0.5v1.3
	l0.7-0.6c0.2-0.2,0.5-0.2,0.7,0l0.4,0.4c0.2,0.2,0.2,0.5,0,0.7l-1.8,1.8V15l2.1-1.2l0.6-2.3c0.1-0.3,0.4-0.4,0.6-0.4l0.5,0.1
	c0.3,0.1,0.4,0.4,0.4,0.6l-0.2,0.9l1.1-0.6c0.2-0.1,0.6-0.1,0.7,0.2l0.5,0.9c0.1,0.2,0.1,0.6-0.2,0.7l-1.1,0.6l0.9,0.2
	c0.3,0.1,0.4,0.4,0.4,0.6l-0.1,0.5c-0.1,0.3-0.4,0.4-0.6,0.4l-2.3-0.6l-2.1,1.2l2.1,1.2l2.3-0.6c0.3-0.1,0.5,0.1,0.6,0.4l0.1,0.5
	c0.1,0.3-0.1,0.5-0.4,0.6l-0.9,0.2l1.1,0.6C100.8,19.9,100.9,20.2,100.7,20.4L100.7,20.4z M7,86.7v5.2h8.4v4.8H7v5.6h9.5v5H0.8V81.7
	h15.7v5H7z M46.3,102.8h-9.5l-1.5,4.5h-6.5l9.3-25.6h7.2l9.3,25.6H48L46.3,102.8L46.3,102.8z M44.7,98l-3.2-9.4L38.4,98H44.7
	L44.7,98z M71.4,106.7c-1.5-0.6-2.7-1.5-3.6-2.7s-1.4-2.6-1.4-4.3H73c0.1,0.9,0.4,1.7,1,2.2s1.3,0.7,2.2,0.7c0.9,0,1.7-0.2,2.2-0.6
	s0.8-1,0.8-1.8c0-0.6-0.2-1.2-0.6-1.6s-0.9-0.8-1.6-1c-0.6-0.3-1.5-0.6-2.6-0.9c-1.7-0.5-3-1-4.1-1.5c-1-0.5-1.9-1.3-2.7-2.3
	c-0.8-1-1.1-2.3-1.1-3.9c0-2.4,0.9-4.3,2.6-5.6c1.7-1.4,4-2,6.8-2s5.1,0.7,6.8,2c1.7,1.4,2.8,3.4,2.8,5.6h-6.8c0-0.8-0.4-1.5-0.9-2
	c-0.6-0.5-1.3-0.7-2.2-0.7c-0.8,0-1.4,0.2-1.8,0.6c-0.5,0.4-0.7,1-0.7,1.7c0,0.8,0.4,1.5,1.2,1.9c0.8,0.5,2,1,3.6,1.5
	c1.7,0.6,3,1.1,4,1.6s1.9,1.3,2.7,2.2c0.8,1,1.1,2.2,1.1,3.8c0,2.9-1.6,5.6-4.3,6.8c-1.4,0.7-3.1,1.1-5,1.1
	C74.5,107.6,72.9,107.3,71.4,106.7L71.4,106.7z M121.4,81.7l-8.9,17.2v8.5h-6.2v-8.6l-8.9-17.2h7.1l5,10.7l4.9-10.7L121.4,81.7
	L121.4,81.7z"/>
<path class="st0" d="M138,106.7c-1.5-0.6-2.7-1.5-3.6-2.7s-1.4-2.6-1.4-4.3h6.6c0.1,0.9,0.4,1.7,1,2.2s1.3,0.7,2.2,0.7
	c0.9,0,1.7-0.2,2.2-0.6s0.8-1,0.8-1.8c0-0.6-0.2-1.2-0.6-1.6s-0.9-0.8-1.6-1c-0.6-0.3-1.5-0.6-2.6-0.9c-1.7-0.5-3-1-4.1-1.5
	c-1-0.5-1.9-1.3-2.7-2.3c-0.8-1-1.1-2.3-1.1-3.9c0-2.4,0.9-4.3,2.6-5.6c1.7-1.4,4-2,6.8-2s5.1,0.7,6.8,2c1.7,1.4,2.8,3.4,2.8,5.6
	h-6.8c0-0.8-0.4-1.5-0.9-2c-0.6-0.5-1.3-0.7-2.2-0.7c-0.8,0-1.4,0.2-1.8,0.6c-0.5,0.4-0.7,1-0.7,1.7c0,0.8,0.4,1.5,1.2,1.9
	c0.8,0.5,2,1,3.6,1.5c1.7,0.6,3,1.1,4,1.6s1.9,1.3,2.7,2.2c0.8,1,1.1,2.2,1.1,3.8c0,2.9-1.6,5.6-4.3,6.8c-1.4,0.7-3.1,1.1-5,1.1
	C141.2,107.6,139.5,107.3,138,106.7L138,106.7z M180.9,107.3L172.3,96v11.3h-6.2V81.7h6.2v11.2l8.5-11.2h7.3l-9.9,12.6l10.3,13.1
	h-7.6L180.9,107.3z M207.6,81.7v25.6h-6.2V81.7H207.6z"/>
</svg>
