<svg xmlns="http://www.w3.org/2000/svg" xml:space="preserve" id="Layer_1" x="0" y="0" style="enable-background:new 0 0 259.1 156.3" version="1.1" viewBox="0 0 259.1 156.3"><style>.st0{fill:#5dc2f0}.st2{fill:#24a4d1}</style><path id="Left" d="M63.5 91.6H0L63.5 28 127 91.5H63.5z" class="st0"/><path id="Right" d="M189.6 91.6h-83l76.2-76.2L259 91.6h-69.4z" class="st0"/><path id="Middle" d="M119.4 91.6H27.8L119.4 0 211 91.6h-91.6z" style="fill:#3aaadc"/><path d="M17 137.4h21v-7.5H17v-9.2h22.8v-7.6H8.2v43.2h32.7v-7.8H17zM57.3 113.1l-15.4 43.2h9.4l3-8.9h15.9l2.8 8.9h9.8l-15.3-43.2H57.3zm7.6 24.3-2.7-2.6-2.7 2.6-2.7 2.6 5.6-17 5.4 17-2.9-2.6zM114 134.9a20 20 0 0 0-7-3l-7.1-1.7a20 20 0 0 1-5.3-1.7 3.5 3.5 0 0 1-1.9-3.3c0-1.6.7-2.8 2-3.7s3.1-1.3 5.3-1.3c2 0 3.6.3 5 1 2 1 3.1 2.8 3.2 5.2h8.2a12 12 0 0 0-4.8-10c-3-2.3-6.7-3.4-11-3.4-5.2 0-9.1 1.2-11.7 3.6-2.7 2.4-4 5.5-4 9.1 0 4 1.4 7 4.1 8.9 1.6 1.1 4.6 2.2 8.8 3.1l4.3 1c2.5.6 4.4 1.2 5.6 1.9 1.2.7 1.8 1.8 1.8 3.1 0 2.3-1.2 3.9-3.6 4.7-1.3.4-2.9.7-4.9.7-3.4 0-5.7-.8-7.1-2.5a7.4 7.4 0 0 1-1.5-4.2h-8.2c0 4.3 1.5 7.6 4.6 10 3.1 2.4 7.2 3.7 12.6 3.7 5.2 0 9.3-1.2 12.1-3.7s4.3-5.6 4.3-9.3c-.1-3.5-1.4-6.3-3.8-8.2zM138.3 131.9l-8.9-18.8h-10.7l15 27v16.2h9v-16.2l14.4-27h-10.2z" class="st2"/><path d="M188 134.9a20 20 0 0 0-7-3l-7.1-1.7a20 20 0 0 1-5.3-1.7 3.5 3.5 0 0 1-1.9-3.3c0-1.6.7-2.8 2-3.7s3.1-1.3 5.3-1.3c2 0 3.6.3 5 1 2 1 3.1 2.8 3.2 5.2h8.2a12 12 0 0 0-4.8-10c-3-2.3-6.7-3.4-11-3.4-5.2 0-9.1 1.2-11.7 3.6-2.7 2.4-4 5.5-4 9.1 0 4 1.4 7 4.1 8.9 1.6 1.1 4.6 2.2 8.8 3.1l4.3 1c2.5.6 4.4 1.2 5.6 1.9 1.2.7 1.8 1.8 1.8 3.1 0 2.3-1.2 3.9-3.6 4.7-1.3.4-2.9.7-4.9.7-3.4 0-5.7-.8-7.1-2.5a7.4 7.4 0 0 1-1.5-4.2h-8.2c0 4.3 1.5 7.6 4.6 10 3.1 2.4 7.2 3.7 12.6 3.7 5.2 0 9.3-1.2 12.1-3.7 2.9-2.5 4.3-5.6 4.3-9.3a10 10 0 0 0-3.8-8.2zM233.7 113.1H222l-16.7 17.8v-17.8h-8.8v43.2h8.8v-14.5l4.3-4.4 13.4 18.9h11.6L216 130.9zM235.9 113.1h9v43.2h-9z" class="st0"/></svg>